PathFileType	4	(X/Y/Z)	/tmp/tmp3fi8u4yx//results/MarkerData/Run_5.trc
DataRate	CameraRate	NumFrames	NumMarkers	Units	OrigDataRate	OrigDataStartFrame	OrigNumFrames
100	100	10	41	m	100	269	539
Frame#	Time	C7			CLAV			LACR			LASI			LCAL			LFAradius			LFAsuperior			LFAulna			LLEL			LMEL			LPSI			LTB1			LTB2			LTB3			LTH1			LTH2			LTH3			LTOE			LUA1			LUA2			LUA3			RACR			RASI			RCAL			RFAradius			RFAsuperior			RFAulna			RLEL			RMEL			RMT5			RPSI			RTB1			RTB2			RTB3			RTH1			RTH2			RTH3			RTOE			RUA1			RUA2			RUA3		
		X1	Y1	Z1	X2	Y2	Z2	X3	Y3	Z3	X4	Y4	Z4	X5	Y5	Z5	X6	Y6	Z6	X7	Y7	Z7	X8	Y8	Z8	X9	Y9	Z9	X10	Y10	Z10	X11	Y11	Z11	X12	Y12	Z12	X13	Y13	Z13	X14	Y14	Z14	X15	Y15	Z15	X16	Y16	Z16	X17	Y17	Z17	X18	Y18	Z18	X19	Y19	Z19	X20	Y20	Z20	X21	Y21	Z21	X22	Y22	Z22	X23	Y23	Z23	X24	Y24	Z24	X25	Y25	Z25	X26	Y26	Z26	X27	Y27	Z27	X28	Y28	Z28	X29	Y29	Z29	X30	Y30	Z30	X31	Y31	Z31	X32	Y32	Z32	X33	Y33	Z33	X34	Y34	Z34	X35	Y35	Z35	X36	Y36	Z36	X37	Y37	Z37	X38	Y38	Z38	X39	Y39	Z39	X40	Y40	Z40	X41	Y41	Z41

270	2.77	1.15532	1.55398	-0.427994	1.25253	1.45488	-0.37348	1.24797	1.53628	-0.582008	1.20827	0.990121	-0.569009	0.520153	0.593925	-0.512683	1.35129	1.25867	-0.558221	1.2519	1.25014	-0.706748	1.35937	1.18988	-0.577552	1.17948	1.27304	-0.753915	1.12159	1.25734	-0.683304	1.03758	1.05942	-0.507981	0.767352	0.463589	-0.510875	0.705858	0.496129	-0.556214	0.626619	0.478236	-0.502436	1.09714	0.845592	-0.62566	1.09331	0.704277	-0.590318	0.978837	0.625599	-0.586869	0.448044	0.378572	-0.441262	1.23956	1.4431	-0.684658	1.15192	1.40719	-0.690025	1.1949	1.34146	-0.727961	1.1835	1.50581	-0.249937	1.18092	1.0123	-0.318658	1.34749	0.087421	-0.444573	1.10986	1.22071	-0.235603	0.966246	1.31312	-0.201187	1.06159	1.17028	-0.222643	0.895199	1.36242	-0.21037	0.897984	1.37015	-0.305909	1.56857	0.167273	-0.375426	1.02073	1.06138	-0.41398	1.37223	0.405316	-0.387913	1.36171	0.289142	-0.358065	1.41147	0.238661	-0.425601	1.16436	0.847726	-0.259578	1.23272	0.764957	-0.271265	1.21899	0.620534	-0.302232	1.55262	0.206903	-0.444868	1.05925	1.43868	-0.194411	1.00625	1.46769	-0.231669	0.969654	1.40787	-0.205755
271	2.78	1.15578	1.54681	-0.426861	1.2529	1.44708	-0.374224	1.24797	1.52957	-0.581185	1.20756	0.984878	-0.567841	0.544269	0.613918	-0.508836	1.34525	1.23456	-0.565039	1.24039	1.23831	-0.710581	1.34757	1.16598	-0.586636	1.16797	1.26765	-0.754196	1.10875	1.25209	-0.684634	1.03661	1.05333	-0.507134	0.780787	0.463431	-0.515105	0.721987	0.502562	-0.558849	0.641899	0.489255	-0.505349	1.09949	0.839851	-0.626208	1.10093	0.698117	-0.592887	0.988611	0.616103	-0.589403	0.457362	0.400169	-0.449993	1.23239	1.4369	-0.683423	1.14434	1.40207	-0.688253	1.18534	1.33548	-0.728313	1.18526	1.49718	-0.248989	1.18073	1.00655	-0.319259	1.32372	0.08211	-0.448649	1.12017	1.20574	-0.23409	0.975173	1.29411	-0.195914	1.07358	1.15398	-0.219538	0.902461	1.34162	-0.203559	0.902608	1.34933	-0.298809	1.54653	0.144209	-0.374252	1.02026	1.0551	-0.413088	1.36136	0.393082	-0.389704	1.34633	0.276791	-0.360539	1.39458	0.224725	-0.427722	1.16092	0.837002	-0.259157	1.22812	0.754371	-0.266627	1.2165	0.612603	-0.306033	1.53462	0.185266	-0.444233	1.0632	1.42569	-0.191686	1.00794	1.45207	-0.227129	0.974454	1.39073	-0.200674
272	2.79	1.15621	1.53843	-0.425659	1.25316	1.43813	-0.375135	1.24813	1.52187	-0.579972	1.20678	0.97922	-0.567066	0.570218	0.629594	-0.505001	1.33698	1.20864	-0.572511	1.22753	1.22538	-0.714167	1.33401	1.14089	-0.59672	1.15542	1.26115	-0.754044	1.0951	1.24582	-0.685285	1.03523	1.04676	-0.506282	0.796224	0.461674	-0.519648	0.740328	0.506492	-0.561575	0.659983	0.497489	-0.508403	1.10181	0.832704	-0.62651	1.11053	0.690521	-0.595347	0.999758	0.605637	-0.592476	0.472119	0.417509	-0.458857	1.22471	1.4294	-0.68215	1.13624	1.3957	-0.686316	1.17481	1.32796	-0.727826	1.18671	1.48735	-0.247845	1.18029	0.998838	-0.319219	1.29275	0.081332	-0.453402	1.13109	1.18948	-0.232124	0.984616	1.27331	-0.189823	1.08634	1.13621	-0.216689	0.910328	1.31916	-0.19609	0.907655	1.32645	-0.290707	1.51789	0.115606	-0.372893	1.01978	1.04805	-0.41234	1.34954	0.37958	-0.391179	1.32737	0.263523	-0.363781	1.37378	0.209377	-0.43054	1.15791	0.827207	-0.259372	1.22414	0.74725	-0.264486	1.21483	0.605067	-0.309837	1.51148	0.156942	-0.443729	1.0673	1.41076	-0.188729	1.00965	1.43433	-0.222062	0.97971	1.37148	-0.195203
273	2.8	1.15677	1.52902	-0.424285	1.25353	1.42831	-0.376025	1.24859	1.51351	-0.578447	1.20567	0.973046	-0.566824	0.597419	0.641061	-0.502115	1.32645	1.18162	-0.580782	1.21317	1.21148	-0.717374	1.31854	1.11512	-0.607728	1.14188	1.25379	-0.753332	1.08148	1.23893	-0.684512	1.03286	1.03974	-0.505644	0.813804	0.458431	-0.523917	0.760682	0.507709	-0.564241	0.680571	0.502805	-0.511228	1.10381	0.824532	-0.626461	1.12073	0.682142	-0.597966	1.01239	0.594151	-0.596243	0.491757	0.430524	-0.467021	1.21643	1.42079	-0.680839	1.12758	1.38822	-0.684352	1.16337	1.31886	-0.726308	1.1881	1.47649	-0.246418	1.17892	0.98978	-0.318637	1.25624	0.0847188	-0.458294	1.14269	1.17213	-0.230058	0.994625	1.25079	-0.183085	1.0999	1.11727	-0.214361	0.918979	1.29532	-0.188004	0.913547	1.30212	-0.282005	1.48334	0.0873291	-0.373104	1.0188	1.04077	-0.41163	1.33772	0.367388	-0.392082	1.30627	0.252393	-0.367336	1.34975	0.196046	-0.434216	1.15487	0.819987	-0.25962	1.22049	0.743191	-0.265593	1.21271	0.598694	-0.311504	1.48284	0.126943	-0.445106	1.07161	1.39384	-0.185404	1.01147	1.41445	-0.216354	0.985782	1.3499	-0.189567
274	2.81	1.15766	1.51936	-0.422641	1.25421	1.41811	-0.376827	1.24903	1.50478	-0.577306	1.20381	0.96627	-0.56684	0.625657	0.648319	-0.501075	1.31379	1.15449	-0.589997	1.19724	1.19711	-0.720016	1.30103	1.08957	-0.619662	1.12733	1.2459	-0.751871	1.06837	1.23176	-0.681779	1.02934	1.03247	-0.505672	0.833973	0.453983	-0.527073	0.783048	0.505902	-0.566704	0.703585	0.505025	-0.513488	1.10544	0.81577	-0.625941	1.13034	0.673972	-0.600601	1.02637	0.581829	-0.600138	0.515352	0.439	-0.473597	1.20742	1.41135	-0.679351	1.11828	1.37985	-0.682511	1.15107	1.3085	-0.723806	1.18959	1.46497	-0.244611	1.17595	0.980563	-0.317448	1.2155	0.0902093	-0.462299	1.15519	1.15409	-0.228438	1.00555	1.22672	-0.175997	1.1145	1.09764	-0.212681	0.928737	1.27021	-0.179331	0.920731	1.27662	-0.272944	1.44335	0.0657022	-0.375631	1.01651	1.0339	-0.411313	1.32585	0.358746	-0.392809	1.28438	0.246178	-0.370174	1.32232	0.187668	-0.438309	1.15116	0.816102	-0.259323	1.21722	0.741191	-0.268048	1.21057	0.594682	-0.310366	1.44792	0.10179	-0.449083	1.07648	1.37468	-0.18169	1.01375	1.39222	-0.209575	0.993134	1.32577	-0.183952
275	2.82	1.159	1.51091	-0.420773	1.25511	1.40818	-0.377688	1.24884	1.49602	-0.577453	1.2008	0.959078	-0.566654	0.654429	0.651343	-0.502538	1.2991	1.12847	-0.600063	1.18009	1.18348	-0.721862	1.28142	1.0656	-0.632497	1.11173	1.23803	-0.749568	1.0556	1.22471	-0.6773	1.02519	1.0254	-0.506749	0.857242	0.448732	-0.528547	0.807564	0.501057	-0.568863	0.729008	0.504141	-0.515129	1.10699	0.807046	-0.625026	1.13925	0.66719	-0.603007	1.04157	0.569545	-0.603343	0.542024	0.442572	-0.478127	1.1978	1.40173	-0.67752	1.10841	1.37117	-0.680624	1.13804	1.29788	-0.720591	1.19111	1.45347	-0.242441	1.17149	0.97277	-0.315581	1.17149	0.0956274	-0.464471	1.169	1.1361	-0.227718	1.01823	1.20169	-0.169127	1.1306	1.07802	-0.211547	0.940226	1.24387	-0.170292	0.929401	1.24996	-0.263549	1.39891	0.0537619	-0.379297	1.01246	1.02797	-0.412212	1.31254	0.353964	-0.393946	1.26167	0.245304	-0.371327	1.29092	0.18467	-0.441773	1.14645	0.81507	-0.258274	1.21423	0.740325	-0.269275	1.2091	0.593106	-0.307342	1.4068	0.085623	-0.454338	1.08264	1.35341	-0.17801	1.01733	1.36799	-0.201203	1.00223	1.29957	-0.17848
276	2.83	1.16072	1.50492	-0.418912	1.25587	1.39936	-0.378803	1.24755	1.4877	-0.579149	1.19678	0.952125	-0.566187	0.68268	0.650266	-0.506564	1.28232	1.1049	-0.610525	1.16238	1.17236	-0.722786	1.25963	1.04481	-0.645889	1.09528	1.23129	-0.746543	1.04259	1.21856	-0.672003	1.02134	1.01923	-0.508774	0.883839	0.443069	-0.528575	0.834441	0.493856	-0.570738	0.756696	0.500423	-0.516482	1.1088	0.799324	-0.624022	1.14837	0.662768	-0.605091	1.05826	0.558775	-0.605537	0.57128	0.44087	-0.480951	1.18806	1.39299	-0.675416	1.09818	1.36345	-0.67804	1.12448	1.28874	-0.717032	1.19259	1.44289	-0.240205	1.16659	0.967717	-0.313267	1.12511	0.0998059	-0.464748	1.18458	1.11938	-0.228015	1.03386	1.17721	-0.16335	1.1488	1.05958	-0.210725	0.954363	1.21684	-0.161482	0.939364	1.22253	-0.253854	1.3517	0.0498346	-0.381971	1.00746	1.02335	-0.414936	1.29574	0.351059	-0.395607	1.23653	0.247201	-0.370793	1.25538	0.184597	-0.443747	1.14111	0.815555	-0.256824	1.21077	0.739871	-0.268497	1.20728	0.592351	-0.304044	1.36102	0.0779788	-0.458492	1.09095	1.33138	-0.175226	1.0233	1.34338	-0.191391	1.01336	1.27316	-0.173302
277	2.84	1.16242	1.50154	-0.41735	1.25623	1.39236	-0.3802	1.24505	1.48062	-0.581676	1.19265	0.946396	-0.565914	0.709184	0.64541	-0.5123	1.26339	1.08528	-0.620661	1.14449	1.16534	-0.722999	1.23569	1.0287	-0.658902	1.07835	1.2273	-0.743139	1.02888	1.21465	-0.66691	1.01858	1.01471	-0.511049	0.913459	0.437325	-0.528043	0.863749	0.485568	-0.572423	0.786251	0.494358	-0.518015	1.11084	0.793641	-0.623266	1.15877	0.661063	-0.606886	1.07706	0.55092	-0.607092	0.602955	0.43372	-0.483056	1.17861	1.38645	-0.673447	1.08777	1.35837	-0.673998	1.11048	1.28312	-0.713508	1.19427	1.43407	-0.238464	1.16261	0.965679	-0.311075	1.07723	0.102659	-0.464035	1.20226	1.10568	-0.229158	1.05322	1.1556	-0.159577	1.16952	1.04409	-0.210116	0.971824	1.1907	-0.153808	0.950257	1.19577	-0.24424	1.30332	0.0497187	-0.382621	1.00336	1.0203	-0.419059	1.27387	0.347022	-0.397402	1.20714	0.248046	-0.369677	1.21622	0.184067	-0.444344	1.13597	0.816003	-0.255714	1.20572	0.738863	-0.266988	1.20222	0.590222	-0.301783	1.31284	0.0752598	-0.460267	1.1017	1.31127	-0.174097	1.03224	1.32106	-0.181556	1.02649	1.24937	-0.168714
278	2.85	1.16346	1.4997	-0.416226	1.25628	1.38762	-0.381727	1.24136	1.47571	-0.583952	1.18945	0.942677	-0.566268	0.733173	0.637154	-0.518082	1.24254	1.07113	-0.629781	1.12603	1.16304	-0.723098	1.20994	1.01833	-0.670159	1.0612	1.22764	-0.739799	1.01442	1.21455	-0.662487	1.01705	1.01221	-0.512603	0.945279	0.431873	-0.527656	0.895091	0.477458	-0.573902	0.817007	0.486497	-0.519846	1.1126	0.790461	-0.622917	1.17095	0.661857	-0.608353	1.09848	0.546674	-0.608531	0.636917	0.421296	-0.485572	1.16924	1.38326	-0.672085	1.07711	1.35736	-0.668314	1.09596	1.28247	-0.710368	1.1967	1.4276	-0.237683	1.16021	0.96571	-0.309543	1.0285	0.104692	-0.46341	1.22187	1.09704	-0.230957	1.0757	1.13927	-0.158216	1.19271	1.03368	-0.209987	0.99224	1.16809	-0.14811	0.961991	1.17226	-0.235624	1.25443	0.0500455	-0.382063	1.00157	1.01885	-0.422932	1.24647	0.339845	-0.398977	1.17295	0.245526	-0.369288	1.17431	0.181374	-0.444498	1.13163	0.815119	-0.255448	1.19838	0.735895	-0.266223	1.19125	0.58558	-0.30105	1.26383	0.0739919	-0.460394	1.11415	1.29601	-0.174613	1.04355	1.30342	-0.173875	1.04121	1.23072	-0.165115
279	2.86	1.16331	1.49815	-0.415415	1.25639	1.3852	-0.383257	1.23624	1.47366	-0.58541	1.18752	0.941083	-0.566977	0.754625	0.625728	-0.522072	1.2205	1.0637	-0.637541	1.10617	1.1651	-0.723704	1.18321	1.01425	-0.678471	1.04369	1.23302	-0.736868	0.99939	1.21932	-0.658498	1.01621	1.01147	-0.512724	0.97823	0.42721	-0.5273	0.927484	0.470239	-0.57493	0.848164	0.477377	-0.521492	1.11354	0.789354	-0.622924	1.18467	0.664916	-0.609259	1.12237	0.546049	-0.609873	0.672872	0.404166	-0.489374	1.15912	1.38399	-0.671431	1.06589	1.36087	-0.66168	1.08073	1.28706	-0.707836	1.2004	1.42376	-0.237884	1.15916	0.966306	-0.308803	0.979315	0.106535	-0.463265	1.24252	1.09515	-0.233396	1.09922	1.12961	-0.15885	1.21761	1.03013	-0.210927	1.01391	1.15151	-0.144712	0.974991	1.15446	-0.22921	1.20491	0.0497609	-0.381674	1.00176	1.01865	-0.424537	1.21404	0.329788	-0.400318	1.13482	0.240176	-0.370072	1.13043	0.177291	-0.444996	1.12786	0.812151	-0.25582	1.18901	0.729793	-0.266409	1.17401	0.578913	-0.301564	1.21449	0.0726763	-0.46038	1.12686	1.28705	-0.175918	1.05576	1.2913	-0.169776	1.05681	1.21824	-0.162802
